<svg xmlns="http://www.w3.org/2000/svg" xmlns:xlink="http://www.w3.org/1999/xlink" viewBox="0 0 192.29 207.8"><defs><style>.cls-1{fill:#361057;}.cls-2{fill:#fff;}.cls-3{fill:url(#linear-gradient);}.cls-4{fill:url(#linear-gradient-2);}</style><linearGradient id="linear-gradient" x1="54.72" y1="96.75" x2="32.86" y2="156.63" gradientUnits="userSpaceOnUse"><stop offset="0" stop-color="#fff"/><stop offset="0.9"/></linearGradient><linearGradient id="linear-gradient-2" x1="132.11" y1="113.25" x2="150.49" y2="173.91" xlink:href="#linear-gradient"/></defs><title>Asset 11backend-logo</title><g id="Layer_2" data-name="Layer 2"><g id="Layer_1-2" data-name="Layer 1"><path class="cls-1" d="M187.21,155.85a181.57,181.57,0,0,1-54,39.34,179.7,179.7,0,0,1-36,12.61,159.5,159.5,0,0,1-90-52A189.79,189.79,0,0,1,7.25,52,308.2,308.2,0,0,1,97.23,0a346.84,346.84,0,0,1,48,23.19,347.06,347.06,0,0,1,42,28.76,268.62,268.62,0,0,1,5,47.24A269.32,269.32,0,0,1,187.21,155.85Z"/><path class="cls-2" d="M48.77,104l39.44,13.27v22.13l-63.74-26V94.27"/><path class="cls-2" d="M143.66,103.79,104.44,90.45V68.39l63.38,26v19.18"/><polyline class="cls-3" points="24.47 94.28 88.21 68.32 88.21 90.38 48.77 104.01"/><polyline class="cls-4" points="167.82 113.53 104.44 139.49 104.44 117.42 143.66 103.79"/><path class="cls-2" d="M87.67,114.84V93h7.86A11.14,11.14,0,0,1,102,94.51a5.72,5.72,0,0,1,1.42,7.39,4.51,4.51,0,0,1-2.3,1.77,4.68,4.68,0,0,1,2.63,1.69,4.89,4.89,0,0,1,.92,3,5.77,5.77,0,0,1-2,4.83q-2,1.62-6,1.65Zm5.27-12.76h2.75a3.94,3.94,0,0,0,2.47-.63,2.24,2.24,0,0,0,.73-1.82,2.36,2.36,0,0,0-.79-2A4.24,4.24,0,0,0,95.53,97H92.94Zm0,3.46v5.24H96.4a3.31,3.31,0,0,0,2.19-.65,2.3,2.3,0,0,0,.77-1.84,2.42,2.42,0,0,0-2.72-2.75Z"/></g></g></svg>