<svg xmlns="http://www.w3.org/2000/svg" viewBox="0 0 192.29 207.8"><defs><style>.cls-1,.cls-3{fill:#361057;}.cls-2{fill:#fff;}.cls-3{font-size:40px;font-family:Roboto-Black, Roboto;font-weight:800;}</style></defs><title>Asset 12design-logo</title><g id="Layer_2" data-name="Layer 2"><g id="Layer_1-2" data-name="Layer 1"><path class="cls-1" d="M187.22,155.85a181.81,181.81,0,0,1-54,39.34,179.42,179.42,0,0,1-36,12.61,160.09,160.09,0,0,1-53-20.61,159.53,159.53,0,0,1-37-31.34A189.53,189.53,0,0,1,7.26,52,307,307,0,0,1,74.11,9.65C82.28,5.84,90,2.67,97.24,0c6.56,2.57,13.56,5.53,20.87,9,8.65,4,17.75,8.75,27.14,14.22a346.1,346.1,0,0,1,42,28.76,268.7,268.7,0,0,1,5,47.24A268.78,268.78,0,0,1,187.22,155.85Z"/><path class="cls-2" d="M118.14,89.19h-44l-10,28,31,53.36v-46a1.47,1.47,0,0,1,0-2,.91.91,0,0,1,1,0,1.46,1.46,0,0,1,0,2v46l32-53.36Z"/><path class="cls-2" d="M118.11,9V84.19h-44V9.65C82.28,5.84,90,2.67,97.24,0,103.8,2.57,110.8,5.53,118.11,9Z"/><text class="cls-3" transform="translate(83.72 61)">D</text></g></g></svg>