<svg xmlns="http://www.w3.org/2000/svg" viewBox="0 0 706.8 288.6"><defs><style>.cls-1,.cls-2{fill:none;stroke:#470a7d;stroke-miterlimit:10;}.cls-1{stroke-width:3px;}.cls-2{stroke-width:5px;}</style></defs><title>Asset 8design-pattern</title><g id="Layer_2" data-name="Layer 2"><g id="Layer_1-2" data-name="Layer 1"><polyline class="cls-1" points="184.45 92 216.79 111.65 196.18 141.77 224.71 161.42"/><circle class="cls-2" cx="365.96" cy="122.98" r="9.51"/><polygon class="cls-2" points="45.41 77.54 53.02 62.95 69.5 72.47 69.5 87.68 52.38 87.68 45.41 77.54"/><polyline class="cls-2" points="547.62 46.21 550.12 72.72 524.87 75.1 527.49 102.88 503.5 105.14"/><path class="cls-1" d="M296.31,46.08c7.76-6.4,16.59-15.25,14.45-22-2.28-7.18-15.61-7.74-15.71-11.94-.06-2.39,4.16-6,25.14-10.69"/><path class="cls-1" d="M563,177.25c23.31,13.59,27.33,21.84,26.33,26.95-1.8,9.22-20.55,11.13-20.82,19-.2,5.75,9.61,10.78,17.76,14.08"/><polygon class="cls-2" points="2.5 193.42 22.53 205.94 2.5 220.96 2.5 193.42"/><circle class="cls-1" cx="682.79" cy="132.53" r="12.51"/><path class="cls-1" d="M698.06,134.49a12.22,12.22,0,0,1-4.41,4.22"/><circle class="cls-1" cx="692.79" cy="123.15" r="12.51"/><rect class="cls-1" x="439.84" y="246" width="22.39" height="23.36"/><line class="cls-1" x1="118.62" y1="250.62" x2="129.89" y2="288.17"/><line class="cls-1" x1="287.81" y1="205.77" x2="327.86" y2="235.81"/></g></g></svg>