<svg xmlns="http://www.w3.org/2000/svg" viewBox="0 0 699.19 362.64"><defs><style>.cls-1{fill:#470a7d;}.cls-1,.cls-2{stroke:#470a7d;stroke-miterlimit:10;}.cls-2{fill:none;stroke-width:3px;}</style></defs><title>Asset 6math-pattern</title><g id="Layer_2" data-name="Layer 2"><g id="Layer_1-2" data-name="Layer 1"><path class="cls-1" d="M164.09,186.5l-19.34-5.27,1-3.82,7.92,2.16,6.12-22.47-8.46,2-.56-3.89,11.2-2.49,3.63,1-7.39,27.11,6.88,1.87Z"/><path class="cls-1" d="M375.75,132.6a28.68,28.68,0,0,1,2.28,6.32,15.5,15.5,0,0,1,.27,5.62,10.39,10.39,0,0,1-1.85,4.63,10.93,10.93,0,0,1-4.14,3.35,11.09,11.09,0,0,1-4.61,1.18,9.4,9.4,0,0,1-4.53-1.09,14.6,14.6,0,0,1-4.3-3.58,29.19,29.19,0,0,1-3.95-6.25,27.54,27.54,0,0,1-2.27-6.33,15.88,15.88,0,0,1-.29-5.64,10.45,10.45,0,0,1,1.86-4.63,10.86,10.86,0,0,1,4.13-3.34,11.06,11.06,0,0,1,4.61-1.18,9.3,9.3,0,0,1,4.53,1.1,14.7,14.7,0,0,1,4.31,3.59A29.19,29.19,0,0,1,375.75,132.6Zm-17,8.16c.22.46.45.91.68,1.36s.47.88.72,1.28l7.74-14.9a11.11,11.11,0,0,0-1.83-1.64,7.69,7.69,0,0,0-2-1,5.8,5.8,0,0,0-2.11-.25,5.61,5.61,0,0,0-2.2.61,5.82,5.82,0,0,0-2.36,2.05,6.83,6.83,0,0,0-1,3.17,13.09,13.09,0,0,0,.43,4.2A25.33,25.33,0,0,0,358.71,140.76ZM372,134.62c-.25-.5-.51-1-.78-1.46l-.82-1.38-7.73,14.95a12.34,12.34,0,0,0,1.87,1.7,7.13,7.13,0,0,0,2,1.06,6,6,0,0,0,6.77-2.4,6.83,6.83,0,0,0,1-3.16,13,13,0,0,0-.42-4.19A25.94,25.94,0,0,0,372,134.62Z"/><path class="cls-1" d="M512.44,228.23l-4.29-.73,2.47-14.44-13.21-2.26-2.47,14.44-4.28-.73L496,193.05l4.29.74-2.28,13.31,13.21,2.26,2.28-13.31,4.28.73Z"/><path class="cls-1" d="M544.87,205.18l-9.32-1.6-4.75,27.8-4.34-.74,4.76-27.8-9.31-1.59.63-3.66,23,3.93Z"/><path class="cls-1" d="M572,209.81l-9.31-1.59L557.89,236l-4.33-.75,4.76-27.79L549,205.89l.62-3.66,23,3.93Z"/><path class="cls-1" d="M597.46,220.32a10.8,10.8,0,0,1-1.37,3.69,9.59,9.59,0,0,1-2.82,3,11.57,11.57,0,0,1-4.29,1.76,15.88,15.88,0,0,1-5.79,0l-3.9-.67-1.93,11.29-4.28-.74,5.38-31.45,8.86,1.52A18.82,18.82,0,0,1,591.7,210a10.88,10.88,0,0,1,3.48,2.32,8.37,8.37,0,0,1,2.08,3.43A9.59,9.59,0,0,1,597.46,220.32Zm-4.48-.57a5.7,5.7,0,0,0-1.2-5,8.62,8.62,0,0,0-5.26-2.56l-4.39-.75-2.21,12.94,4,.69a9.3,9.3,0,0,0,6.15-.66A6.18,6.18,0,0,0,593,219.75Z"/><path class="cls-1" d="M233.36.59l-6.25,35.63-5.2.69-11.2-18.1,4-2.47,7.13,12,2,3.55.63-4.71L228.76,1.2Z"/><path class="cls-1" d="M508.84,345.13l-32,16.9-3.73-3.69,7.43-19.94L485,340l-5.08,13-1.6,3.74,4.11-2.4,23.16-12.46Z"/><path class="cls-1" d="M21.92,157.14l-2.13,1.4-5.15-7.85a4.21,4.21,0,0,0-1.92-1.78,2.16,2.16,0,0,0-2,.29,3.53,3.53,0,0,0-.73.65,3.69,3.69,0,0,0-.51.91,7.92,7.92,0,0,0-.37,1.36c-.11.53-.21,1.18-.3,1.94l5.34,8.17L12,163.62.69,146.31l2.13-1.4,3.29,5,1.19,2a9,9,0,0,1,.33-1.66,5.7,5.7,0,0,1,.53-1.3,4.76,4.76,0,0,1,.74-1,6.3,6.3,0,0,1,1-.79,4.34,4.34,0,0,1,3.58-.74,5.88,5.88,0,0,1,3.21,2.72Z"/><path class="cls-1" d="M31.77,141c.19.3.36.56.48.76s.24.41.34.61L24,148a4.57,4.57,0,0,0,3,2.21,5.06,5.06,0,0,0,3.7-1,12.57,12.57,0,0,0,1.05-.75c.34-.26.66-.53,1-.8s.59-.53.86-.79.5-.52.72-.76l1.14,1.75a18.11,18.11,0,0,1-1.7,1.69,19.39,19.39,0,0,1-2.18,1.64,9.13,9.13,0,0,1-3,1.35,5.51,5.51,0,0,1-2.68,0,6,6,0,0,1-2.39-1.29,11.5,11.5,0,0,1-2.1-2.45,9.4,9.4,0,0,1-1.24-2.7,7.62,7.62,0,0,1-.24-2.75,6.37,6.37,0,0,1,.85-2.54,6.23,6.23,0,0,1,2-2.06,7,7,0,0,1,2.54-1.09,5.37,5.37,0,0,1,2.43.05,5.75,5.75,0,0,1,2.2,1.12A9.16,9.16,0,0,1,31.77,141Zm-2.42,1.14a5.73,5.73,0,0,0-1.14-1.39,3.83,3.83,0,0,0-1.38-.78,3.37,3.37,0,0,0-1.52-.09,4,4,0,0,0-1.6.65,3.5,3.5,0,0,0-1.6,2.52,4.75,4.75,0,0,0,.1,1.62,6.38,6.38,0,0,0,.67,1.71Z"/><path class="cls-1" d="M33.63,127.24,30,129.62l-1.15-1.75,5.79-3.8,10.18,15.54,3.67-2.4L49.64,139l-9.86,6.46-1.17-1.78,4-2.65Z"/><path class="cls-1" d="M47.42,118.2l-3.64,2.39-1.14-1.76L48.43,115l10.18,15.53,3.66-2.4L63.44,130l-9.87,6.46-1.16-1.77,4-2.65Z"/><path class="cls-1" d="M73.84,114.21a9.56,9.56,0,0,1,1.32,2.89,6.93,6.93,0,0,1,.17,2.81,6.16,6.16,0,0,1-1,2.53,7.4,7.4,0,0,1-2.17,2.1,7.56,7.56,0,0,1-2.64,1.14,5.67,5.67,0,0,1-2.56,0,6.41,6.41,0,0,1-2.41-1.25,10.31,10.31,0,0,1-2.16-2.45,9.7,9.7,0,0,1-1.31-2.88,7.06,7.06,0,0,1-.17-2.8,6.3,6.3,0,0,1,1-2.53,7.65,7.65,0,0,1,2.17-2.1,7.75,7.75,0,0,1,2.64-1.14,5.66,5.66,0,0,1,2.56,0,6.35,6.35,0,0,1,2.41,1.23A10.26,10.26,0,0,1,73.84,114.21Zm-2.12,1.52a8.2,8.2,0,0,0-1.55-1.82,4.85,4.85,0,0,0-1.65-1,3.62,3.62,0,0,0-1.7-.11,4.37,4.37,0,0,0-1.67.69,3.75,3.75,0,0,0-1.86,3.17,5.22,5.22,0,0,0,.32,1.87,8.81,8.81,0,0,0,.93,1.87,8.57,8.57,0,0,0,1.56,1.83,4.85,4.85,0,0,0,1.65,1,3.74,3.74,0,0,0,1.69.12,4.58,4.58,0,0,0,1.69-.69,4.06,4.06,0,0,0,1.39-1.45,3.92,3.92,0,0,0,.46-1.73,5.26,5.26,0,0,0-.32-1.87A8.69,8.69,0,0,0,71.72,115.73Z"/><path class="cls-1" d="M98.16,89.63l6.27,13.47-2.59,1.7-5.15-4-1.17-1,.46,1.59,1.62,6.18-2.51,1.65L85.25,98.08l2.09-1.36,6.5,7.68,1.44,1.72-.54-2-1.83-6.7,1.53-1,5.5,4.19,1.62,1.27-1-1.85-4.56-9Z"/><path class="cls-1" d="M115.23,87.09a9.61,9.61,0,0,1,1.32,2.9,7.12,7.12,0,0,1,.18,2.81,6.32,6.32,0,0,1-1,2.53,7.33,7.33,0,0,1-2.16,2.09,7.87,7.87,0,0,1-2.64,1.15,5.57,5.57,0,0,1-2.57,0A6.24,6.24,0,0,1,106,97.28a10.31,10.31,0,0,1-2.16-2.45,9.89,9.89,0,0,1-1.31-2.89,7,7,0,0,1-.17-2.79,6.36,6.36,0,0,1,1-2.54,7.33,7.33,0,0,1,2.16-2.09,7.72,7.72,0,0,1,2.64-1.14,5.71,5.71,0,0,1,2.57,0,6.42,6.42,0,0,1,2.4,1.24A10.4,10.4,0,0,1,115.23,87.09Zm-2.11,1.53a8.57,8.57,0,0,0-1.56-1.83,5,5,0,0,0-1.65-1,3.59,3.59,0,0,0-1.69-.11,4.62,4.62,0,0,0-1.68.68,4,4,0,0,0-1.39,1.45,3.76,3.76,0,0,0-.46,1.73,5.24,5.24,0,0,0,.31,1.87,9.69,9.69,0,0,0,2.49,3.7,4.79,4.79,0,0,0,1.66,1,3.47,3.47,0,0,0,1.69.12,4.29,4.29,0,0,0,1.68-.69,3.77,3.77,0,0,0,1.85-3.17,5.21,5.21,0,0,0-.31-1.87A8.93,8.93,0,0,0,113.12,88.62Z"/><path class="cls-1" d="M114.86,78.69l2-1.28,1.54,2.23a9.6,9.6,0,0,1,.91-3.31,5.24,5.24,0,0,1,1.75-2,4.2,4.2,0,0,1,3.71-.66A6.6,6.6,0,0,1,128,76.76l-2.16,1.41a4.81,4.81,0,0,0-2-2,2,2,0,0,0-2,.24,3,3,0,0,0-.76.72,3.93,3.93,0,0,0-.58,1.08,10,10,0,0,0-.41,1.5,18.23,18.23,0,0,0-.26,2l5.17,7.9L122.92,91Z"/><path class="cls-1" d="M130.21,64l-3.64,2.38-1.15-1.75,5.8-3.8L141.4,76.35l3.66-2.4,1.16,1.78-9.86,6.46-1.16-1.78,4-2.65Z"/><path class="cls-1" d="M145.52,67.76a10,10,0,0,1-1.39-3.07,6.81,6.81,0,0,1-.13-2.86,6.11,6.11,0,0,1,1.06-2.51,8,8,0,0,1,2.19-2.06,11.89,11.89,0,0,1,1.2-.68,8.28,8.28,0,0,1,1.28-.5l-3.39-5.17,2.14-1.41,11.34,17.32-1.91,1.25-1.59-2.28a7.75,7.75,0,0,1-.68,3.19,5.14,5.14,0,0,1-1.85,2.1,4.34,4.34,0,0,1-4.29.41,6.93,6.93,0,0,1-2.07-1.41A12.65,12.65,0,0,1,145.52,67.76Zm2.1-1.56a7.85,7.85,0,0,0,2.83,2.89A2.46,2.46,0,0,0,153,69a3.33,3.33,0,0,0,1.23-1.85,12.06,12.06,0,0,0,.49-3.38L151,58a5.52,5.52,0,0,0-1.41.39,7.36,7.36,0,0,0-1.34.69,4.08,4.08,0,0,0-2,2.91A6.34,6.34,0,0,0,147.62,66.2Z"/><path class="cls-1" d="M172.78,320.3l-2,1-6.7-10.93,12-4.64,1,2.05-9.66,3.67Z"/><path class="cls-1" d="M195.27,307.49l-17.15,19.39-2.3-.78L193,306.71Z"/><path class="cls-1" d="M198.42,315l2-1,6.7,10.93-12,4.64-1-2,9.66-3.68Z"/><path class="cls-2" d="M263.69,279.61C265.93,289.75,250,293,248,282.83,245.78,272.69,261.75,269.41,263.69,279.61Z"/><path class="cls-2" d="M353.81,261.09c2.24,10.14-13.73,13.42-15.67,3.22C335.9,254.18,351.87,250.9,353.81,261.09Z"/><line class="cls-2" x1="263.69" y1="279.61" x2="338.14" y2="264.31"/><polyline class="cls-2" points="549.64 48.14 612.21 69.16 640.91 99.9"/><path class="cls-2" d="M550.65,47c-1.11,10.32-17.29,8.35-15.88-1.94C535.87,34.69,552.06,36.66,550.65,47Z"/><path class="cls-2" d="M654.57,108.23c-1.11,10.32-17.29,8.35-15.88-1.94C639.79,96,656,97.94,654.57,108.23Z"/><path class="cls-1" d="M698.55,271.15l-.61.49a7.06,7.06,0,0,1-.64.42,7.32,7.32,0,0,1-1.29.58,3.16,3.16,0,0,1-1.34.11,3,3,0,0,1-1.47-.75,7.78,7.78,0,0,1-1.39-1.59c-.43-.63-.72-1.09-.89-1.4s-1.33-2.33-3.46-6.1L683.7,265c.53.93,1,1.85,1.48,2.77s.87,1.86,1.25,2.83a28.09,28.09,0,0,1,1,3A22.06,22.06,0,0,1,688,277l-2.5,1.42a19.65,19.65,0,0,0-.41-3.49,23.37,23.37,0,0,0-.9-3.07c-.37-1-.77-1.92-1.23-2.84s-.94-1.85-1.47-2.77l-2.44,1.38L678,265.79l13.14-7.43,1.05,1.86-2.54,1.44c1.81,3.19,2.79,4.93,3,5.2s.4.69.74,1.24a10.57,10.57,0,0,0,1,1.37,2.3,2.3,0,0,0,.84.7,1.21,1.21,0,0,0,.71.08,2.71,2.71,0,0,0,.66-.27,5.19,5.19,0,0,0,.52-.34l.43-.37Z"/><path class="cls-1" d="M355.62,56.81c-.25,0-.51,0-.77,0a6.36,6.36,0,0,1-.77-.05,7,7,0,0,1-1.38-.31,2.76,2.76,0,0,1-1.14-.72,2.91,2.91,0,0,1-.73-1.47,8,8,0,0,1-.16-2.11c0-.76.08-1.31.13-1.65s.34-2.67.9-7L347.41,43c-.13,1-.3,2.09-.48,3.1s-.42,2-.69,3a29.48,29.48,0,0,1-1,3,21.92,21.92,0,0,1-1.53,3.07l-2.85-.37a19.61,19.61,0,0,0,1.76-3,21.56,21.56,0,0,0,1.13-3c.29-1,.53-2,.72-3s.36-2,.49-3.1l-2.79-.36.28-2.12,15,1.94-.28,2.12-2.89-.38q-.71,5.46-.76,5.93t-.15,1.44a12.65,12.65,0,0,0-.06,1.67,2.38,2.38,0,0,0,.26,1.06,1,1,0,0,0,.51.49,2.24,2.24,0,0,0,.7.18,4.4,4.4,0,0,0,.62,0,5.12,5.12,0,0,0,.56,0Z"/></g></g></svg>